<svg xmlns="http://www.w3.org/2000/svg" width="334" height="334" viewBox="0 0 334 334" fill="none">
<path d="M0.172852 16.5455C0.172852 7.40765 7.5805 0 16.7183 0H51.773C68.1093 0 74.5619 21.16 61.0053 30.2756L4.74023 68.109C1.88519 70.0288 0.172852 73.2436 0.172852 76.6841C0.172852 85.0239 9.54319 89.9281 16.3958 85.1747L134.934 2.95048C137.703 1.02941 140.993 0 144.364 0H317.018C326.156 0 333.564 7.40765 333.564 16.5455V246.697V316.845C333.564 325.983 326.156 333.391 317.018 333.391H271.01C255.294 333.391 248.431 313.537 260.792 303.832L333.564 246.697C333.564 235.038 320.169 228.464 310.946 235.597L188.982 329.933C186.084 332.175 182.523 333.391 178.859 333.391H16.7183C7.58051 333.391 0.172852 325.983 0.172852 316.845V16.5455Z" fill="#262626" fill-opacity="1"/>
</svg>